<?xml version="1.0" encoding="utf-8"?>
<!-- Generator: Adobe Illustrator 15.0.0, SVG Export Plug-In . SVG Version: 6.00 Build 0)  -->
<!DOCTYPE svg PUBLIC "-//W3C//DTD SVG 1.1//EN" "http://www.w3.org/Graphics/SVG/1.1/DTD/svg11.dtd">
<svg version="1.1" id="Layer_1" xmlns="http://www.w3.org/2000/svg" xmlns:xlink="http://www.w3.org/1999/xlink" x="0px" y="0px"
	 width="612px" height="792px" viewBox="0 0 612 792" enable-background="new 0 0 612 792" xml:space="preserve">
<g>
	<g>
		<line fill="none" stroke="#000000" stroke-miterlimit="10" x1="100.212" y1="614.79" x2="543.328" y2="614.79"/>
		<g>
			<g>
				<line fill="none" stroke="#000000" stroke-miterlimit="10" x1="100.212" y1="614.79" x2="100.212" y2="605.635"/>
				<line fill="none" stroke="#000000" stroke-miterlimit="10" x1="543.328" y1="614.79" x2="543.328" y2="605.635"/>
			</g>
			<g>
			</g>
		</g>
	</g>
	<g>
		<g>
			<text transform="matrix(1 0 0 1 82.6328 622.5791)" font-family="'MyriadPro-Regular'" font-size="20.771">0</text>
			<text transform="matrix(1 0 0 1 50.667 576.8047)" font-family="'MyriadPro-Regular'" font-size="20.771">1000</text>
			<text transform="matrix(1 0 0 1 50.667 531.0312)" font-family="'MyriadPro-Regular'" font-size="20.771">2000</text>
			<text transform="matrix(1 0 0 1 50.667 485.2578)" font-family="'MyriadPro-Regular'" font-size="20.771">3000</text>
			<text transform="matrix(1 0 0 1 50.667 439.4834)" font-family="'MyriadPro-Regular'" font-size="20.771">4000</text>
			<text transform="matrix(1 0 0 1 50.667 393.7095)" font-family="'MyriadPro-Regular'" font-size="20.771">5000</text>
			<text transform="matrix(1 0 0 1 50.667 347.9355)" font-family="'MyriadPro-Regular'" font-size="20.771">6000</text>
			<text transform="matrix(1 0 0 1 50.667 302.1616)" font-family="'MyriadPro-Regular'" font-size="20.771">7000</text>
			<text transform="matrix(1 0 0 1 50.667 256.3877)" font-family="'MyriadPro-Regular'" font-size="20.771">8000</text>
		</g>
		<line fill="none" stroke="#000000" stroke-miterlimit="10" x1="100.212" y1="614.79" x2="100.212" y2="248.599"/>
		<g>
			<g>
				<line fill="none" stroke="#000000" stroke-miterlimit="10" x1="100.212" y1="614.79" x2="111.29" y2="614.79"/>
				<line fill="none" stroke="#000000" stroke-miterlimit="10" x1="100.212" y1="569.016" x2="111.29" y2="569.016"/>
				<line fill="none" stroke="#000000" stroke-miterlimit="10" x1="100.212" y1="523.242" x2="111.29" y2="523.242"/>
				<line fill="none" stroke="#000000" stroke-miterlimit="10" x1="100.212" y1="477.469" x2="111.29" y2="477.469"/>
				<line fill="none" stroke="#000000" stroke-miterlimit="10" x1="100.212" y1="431.694" x2="111.29" y2="431.694"/>
				<line fill="none" stroke="#000000" stroke-miterlimit="10" x1="100.212" y1="385.92" x2="111.29" y2="385.92"/>
				<line fill="none" stroke="#000000" stroke-miterlimit="10" x1="100.212" y1="340.146" x2="111.29" y2="340.146"/>
				<line fill="none" stroke="#000000" stroke-miterlimit="10" x1="100.212" y1="294.373" x2="111.29" y2="294.373"/>
				<line fill="none" stroke="#000000" stroke-miterlimit="10" x1="100.212" y1="248.599" x2="111.29" y2="248.599"/>
			</g>
			<g>
			</g>
		</g>
	</g>
	<g>
		<g>
			<g>
				<rect x="386.76" y="598.954" fill="#E1E572" width="106.348" height="15.836"/>
			</g>
		</g>
		<g>
			<g>
				<rect x="268.596" y="554.237" fill="#6BC5A4" width="106.348" height="60.553"/>
			</g>
		</g>
		<g>
			<g>
				<rect x="150.432" y="294.582" fill="#016B6D" width="106.348" height="320.208"/>
			</g>
		</g>
	</g>
	<g>
		<g>
		</g>
		<g>
		</g>
		<g>
		</g>
	</g>
</g>
<line fill="none" stroke="#000000" stroke-width="3" stroke-miterlimit="10" x1="39.308" y1="675.541" x2="557.77" y2="675.541"/>
<rect x="163.922" y="630.926" fill="none" width="70.769" height="26.154"/>
<text transform="matrix(1 0 0 1 163.9224 648.7754)" font-family="'HelveticaNeue'" font-size="25">Shirts</text>
<rect x="266.999" y="630.926" fill="none" width="106.154" height="26.154"/>
<text transform="matrix(1 0 0 1 266.999 648.7754)" font-family="'HelveticaNeue'" font-size="25">Materials</text>
<rect x="373.153" y="687.082" fill="none" width="184.616" height="26.154"/>
<text transform="matrix(1 0 0 1 373.1533 704.9316)" font-family="'HelveticaNeue'" font-size="25">The Experience</text>
<rect x="393.922" y="630.926" fill="none" width="179.231" height="26.154"/>
<text transform="matrix(1 0 0 1 393.9219 648.7754)" font-family="'HelveticaNeue'" font-size="25">Programming</text>
<rect x="42.923" y="155.079" fill="none" width="526.155" height="70.386"/>
<text transform="matrix(1 0 0 1 90.6333 180.7822)"><tspan x="0" y="0" font-family="'HelveticaNeue'" font-size="36">The WVU Experience 2015 </tspan><tspan x="-1.331" y="43.2" font-family="'HelveticaNeue'" font-size="36">Campaign Expense Report</tspan></text>
<line fill="none" stroke="#000000" stroke-width="3" stroke-miterlimit="10" x1="39.308" y1="137.541" x2="557.77" y2="137.541"/>
</svg>
